<?xml version="1.0" encoding="UTF-8"?>
<svg width="167px" height="17px" viewBox="0 0 167 17" version="1.1" xmlns="http://www.w3.org/2000/svg" xmlns:xlink="http://www.w3.org/1999/xlink">
    <!-- Generator: Sketch 53 (72520) - https://sketchapp.com -->
    <title>template/loghi/essencewood-bianco</title>
    <desc>Created with Sketch.</desc>
    <g id="Symbols" stroke="none" stroke-width="1" fill="none" fill-rule="evenodd">
        <g id="logo-white" fill="#FFFFFF" fill-rule="nonzero">
            <g id="template/loghi/essencewood-bianco">
                <path d="M153.8,13.4 C153.5,13.6 153.1,13.6 152.6,13.6 C152,13.6 151.5,13.4 151,12.9 C150.5,12.4 150.3,11.7 150.3,10.7 C150.3,9.8 150.5,9 150.9,8.5 C151.3,8 151.9,7.7 152.5,7.7 C152.9,7.7 153.2,7.8 153.4,7.9 C153.7,8 154,8.2 154.5,8.5 L154.5,12.9 C154.4,13.1 154.1,13.3 153.8,13.4 L153.8,13.4 Z M158.7,0.8 L154.6,0.8 L154.6,5.6 C154.2,5.3 153.8,5.1 153.4,5 C152.9,4.8 152.3,4.8 151.6,4.8 C150.4,4.8 149.4,5.1 148.5,5.7 C147.7,6.3 147.1,7 146.7,7.9 C146.3,8.8 146.1,9.8 146.1,10.8 C146.1,12.1 146.4,13.2 146.9,14.1 C147.4,15 148.1,15.6 148.9,16 C149.7,16.4 150.5,16.6 151.4,16.6 C152.2,16.6 152.9,16.5 153.4,16.3 C153.9,16.1 154.3,15.8 154.8,15.4 L154.8,16.4 L158.9,16.4 L158.9,0.8 L158.7,0.8 Z M139.6,12.9 C139.2,13.4 138.6,13.7 137.9,13.7 C137.2,13.7 136.6,13.4 136.2,12.9 C135.8,12.4 135.6,11.7 135.6,10.8 C135.6,9.9 135.8,9.2 136.2,8.7 C136.6,8.2 137.2,7.9 137.9,7.9 C138.7,7.9 139.2,8.2 139.6,8.7 C140,9.2 140.2,9.9 140.2,10.8 C140.2,11.6 140,12.4 139.6,12.9 L139.6,12.9 Z M144.1,8.4 C143.8,7.7 143.4,7.1 142.9,6.5 C142.4,6 141.7,5.5 140.8,5.3 C139.9,5.1 139,4.9 137.9,4.9 C136.8,4.9 135.9,5 135.1,5.3 C134.3,5.6 133.6,6 133,6.6 C132.4,7.1 132,7.8 131.7,8.5 C131.4,9.2 131.3,10 131.3,10.9 C131.3,12 131.5,13.1 132,14 C132.5,14.9 133.2,15.6 134.2,16.1 C135.2,16.6 136.4,16.9 137.8,16.9 C139.2,16.9 140.4,16.6 141.4,16.1 C142.4,15.6 143.1,14.9 143.6,14 C144.1,13.1 144.3,12.1 144.3,10.9 C144.5,9.9 144.3,9.1 144.1,8.4 L144.1,8.4 Z M124.8,12.9 C124.4,13.4 123.8,13.7 123.1,13.7 C122.4,13.7 121.8,13.4 121.4,12.9 C121,12.4 120.8,11.7 120.8,10.8 C120.8,9.9 121,9.2 121.4,8.7 C121.8,8.2 122.4,7.9 123.1,7.9 C123.9,7.9 124.4,8.2 124.8,8.7 C125.2,9.2 125.4,9.9 125.4,10.8 C125.4,11.6 125.2,12.4 124.8,12.9 L124.8,12.9 Z M129.3,8.4 C129,7.7 128.6,7.1 128.1,6.5 C127.6,6 126.9,5.5 126,5.3 C125.2,5 124.2,4.9 123.1,4.9 C122,4.9 121.1,5 120.3,5.3 C119.5,5.6 118.8,6 118.2,6.6 C117.6,7.1 117.2,7.8 116.9,8.5 C116.6,9.2 116.5,10 116.5,10.9 C116.5,12 116.7,13.1 117.2,14 C117.7,14.9 118.4,15.6 119.4,16.1 C120.4,16.6 121.6,16.9 123,16.9 C124.4,16.9 125.6,16.6 126.6,16.1 C127.6,15.6 128.3,14.9 128.8,14 C129.3,13.1 129.5,12.1 129.5,10.9 C129.7,9.9 129.5,9.1 129.3,8.4 L129.3,8.4 Z M111.8,5 L109.8,10.8 L107.5,5 L104.9,5 L102.7,10.8 L100.6,5 L96.5,5 L101.2,16.5 L103.8,16.5 L106.4,10.2 L109,16.5 L111.6,16.5 L116.1,5 L111.8,5 Z M80.5,9.7 C80.5,9 80.7,8.4 81.1,7.9 C81.5,7.5 82.1,7.2 82.7,7.2 C83.4,7.2 83.9,7.4 84.3,7.9 C84.7,8.3 84.8,8.9 84.8,9.7 L80.5,9.7 Z M88.7,10.9 C88.7,9.5 88.4,8.3 87.9,7.4 C87.3,6.5 86.6,5.8 85.8,5.4 C84.9,5 84,4.8 83.1,4.8 C81.7,4.8 80.5,5.1 79.5,5.6 C78.5,6.1 77.8,6.8 77.3,7.7 C76.8,8.6 76.6,9.6 76.6,10.7 C76.6,11.8 76.8,12.9 77.3,13.8 C77.8,14.7 78.5,15.4 79.5,15.9 C80.5,16.4 81.7,16.7 83.1,16.7 C84.4,16.7 85.5,16.6 86.3,16.3 C87.1,16 87.9,15.8 88.5,15.5 L88.5,13 C86.8,13.8 85.3,14.2 84,14.2 C83.2,14.2 82.5,14 81.9,13.5 C81.3,13.1 80.9,12.5 80.7,11.8 L88.8,11.8 L88.8,10.9 L88.7,10.9 Z M74.9,12.8 C74.2,13 73.5,13.2 73,13.3 C72.5,13.4 72,13.5 71.6,13.5 C71.2,13.5 70.7,13.4 70.3,13.2 C69.9,13 69.5,12.7 69.2,12.3 C68.9,11.9 68.8,11.4 68.8,10.8 C68.8,9.9 69.1,9.2 69.6,8.8 C70.2,8.4 70.8,8.1 71.5,8.1 C72.2,8.1 73.3,8.3 74.6,8.7 L74.6,5.5 C74.1,5.3 73.5,5.1 73,5 C72.5,4.9 71.8,4.8 70.9,4.8 C69.6,4.8 68.6,5 67.7,5.4 C66.8,5.8 66.2,6.3 65.7,7 C65.2,7.6 64.9,8.3 64.7,8.9 C64.5,9.6 64.4,10.2 64.4,10.7 C64.4,11.2 64.5,11.8 64.7,12.5 C64.9,13.2 65.2,13.8 65.7,14.5 C66.2,15.1 66.8,15.7 67.7,16.1 C68.6,16.5 69.6,16.7 70.9,16.7 C71.5,16.7 72,16.7 72.4,16.6 C72.9,16.5 73.3,16.4 73.7,16.3 C74.1,16.2 74.4,16.1 74.8,15.9 L74.8,12.8 L74.9,12.8 Z M62.7,9.7 C62.7,6.4 61.3,4.8 58.6,4.8 C57.8,4.8 57.1,4.9 56.4,5.2 C55.8,5.5 55.1,6 54.5,6.6 L54.5,5 L50.4,5 L50.4,16.5 L54.5,16.5 L54.5,9.7 C54.6,9.5 54.8,9.3 54.9,9.1 C55,8.9 55.2,8.7 55.4,8.5 C55.6,8.3 55.8,8.1 56.1,8 C56.4,7.9 56.6,7.8 57,7.8 C57.7,7.8 58.2,8 58.4,8.5 C58.6,9 58.7,9.5 58.7,10.2 L58.7,16.4 L62.8,16.4 L62.8,9.7 L62.7,9.7 Z M40.2,9.7 C40.2,9 40.4,8.4 40.8,7.9 C41.2,7.5 41.8,7.2 42.4,7.2 C43.1,7.2 43.6,7.4 44,7.9 C44.4,8.3 44.5,8.9 44.5,9.7 L40.2,9.7 Z M48.4,10.9 C48.4,9.5 48.1,8.3 47.6,7.4 C47,6.5 46.3,5.8 45.5,5.4 C44.6,5 43.7,4.8 42.8,4.8 C41.4,4.8 40.2,5.1 39.2,5.6 C38.2,6.1 37.5,6.8 37,7.7 C36.5,8.6 36.3,9.6 36.3,10.7 C36.3,11.8 36.5,12.9 37,13.8 C37.5,14.7 38.2,15.4 39.2,15.9 C40.2,16.4 41.4,16.7 42.8,16.7 C44.1,16.7 45.2,16.6 46,16.3 C46.8,16 47.6,15.8 48.2,15.5 L48.2,13 C46.5,13.8 45,14.2 43.7,14.2 C42.9,14.2 42.2,14 41.6,13.5 C41,13.1 40.6,12.5 40.4,11.8 L48.5,11.8 L48.5,10.9 L48.4,10.9 Z M34.1,11.6 C33.9,11.2 33.5,10.8 32.9,10.4 C32.3,10 31.6,9.7 30.7,9.3 C30.1,9.1 29.7,8.9 29.5,8.7 C29.3,8.5 29.2,8.4 29.2,8.2 C29.2,8 29.3,7.8 29.5,7.7 C29.7,7.5 30,7.4 30.5,7.4 C30.9,7.4 31.3,7.4 31.6,7.5 C32,7.6 32.3,7.7 32.6,7.8 C32.9,7.9 33.1,8 33.2,8.1 C33.4,8.2 33.6,8.3 33.8,8.5 L33.8,5.7 C33.3,5.4 32.7,5.2 32.2,5.1 C31.7,5 31.2,4.9 30.8,4.8 C30.4,4.7 30.1,4.7 29.9,4.7 C28.9,4.7 28,4.9 27.3,5.2 C26.6,5.5 26.1,6 25.7,6.5 C25.3,7 25.2,7.6 25.2,8.1 C25.2,8.9 25.5,9.6 26,10.1 C26.5,10.7 27.2,11.1 27.9,11.4 C28.5,11.7 29,11.9 29.4,12.1 C29.8,12.3 30,12.4 30.2,12.6 C30.3,12.7 30.4,12.9 30.4,13.1 C30.4,13.7 29.9,13.9 28.9,13.9 C28.3,13.9 27.7,13.8 27.2,13.6 C26.7,13.4 26.1,13.1 25.4,12.7 L25.4,15.6 C26.2,15.9 26.9,16.1 27.6,16.3 C28.3,16.5 29,16.5 29.9,16.5 C31.4,16.5 32.6,16.2 33.3,15.5 C34.1,14.8 34.5,14 34.5,12.9 C34.4,12.5 34.3,12 34.1,11.6 L34.1,11.6 Z M22.9,11.6 C22.7,11.2 22.3,10.8 21.7,10.4 C21.1,10 20.4,9.7 19.5,9.3 C18.9,9.1 18.5,8.9 18.3,8.7 C18.1,8.5 18,8.4 18,8.2 C18,8 18.1,7.8 18.3,7.7 C18.5,7.5 18.8,7.4 19.3,7.4 C19.7,7.4 20.1,7.4 20.4,7.5 C20.8,7.6 21.1,7.7 21.4,7.8 C21.7,7.9 21.9,8 22,8.1 C22.2,8.2 22.4,8.3 22.6,8.5 L22.6,5.7 C22.1,5.4 21.5,5.2 21,5.1 C20.5,5 20,4.9 19.6,4.8 C19.2,4.8 18.9,4.7 18.7,4.7 C17.7,4.7 16.8,4.9 16.1,5.2 C15.4,5.5 14.9,6 14.5,6.5 C14.2,7 14,7.6 14,8.1 C14,8.9 14.3,9.6 14.8,10.1 C15.3,10.7 16,11.1 16.7,11.4 C17.3,11.7 17.8,11.9 18.2,12.1 C18.6,12.3 18.8,12.4 19,12.6 C19.1,12.7 19.2,12.9 19.2,13.1 C19.2,13.7 18.7,13.9 17.7,13.9 C17.1,13.9 16.5,13.8 16,13.6 C15.5,13.4 14.9,13.1 14.2,12.7 L14.2,15.6 C15,15.9 15.7,16.1 16.4,16.3 C17.1,16.5 17.8,16.5 18.7,16.5 C20.2,16.5 21.4,16.2 22.1,15.5 C22.9,14.8 23.3,14 23.3,12.9 C23.2,12.5 23.1,12 22.9,11.6 L22.9,11.6 Z M4,9.7 C4,9 4.2,8.4 4.6,7.9 C5,7.5 5.6,7.2 6.2,7.2 C6.9,7.2 7.4,7.4 7.8,7.9 C8.2,8.3 8.3,8.9 8.3,9.7 L4,9.7 Z M12.2,10.9 C12.2,9.5 11.9,8.3 11.4,7.4 C10.8,6.5 10.1,5.8 9.3,5.4 C8.4,5 7.5,4.8 6.6,4.8 C5.2,4.8 4,5.1 3,5.6 C2,6.1 1.3,6.8 0.8,7.7 C0.3,8.6 0.1,9.6 0.1,10.7 C0.1,11.8 0.3,12.9 0.8,13.8 C1.3,14.7 2,15.4 3,15.9 C4,16.4 5.2,16.7 6.6,16.7 C7.9,16.7 9,16.6 9.8,16.3 C10.6,16 11.4,15.8 12,15.5 L12,13 C10.3,13.8 8.8,14.2 7.5,14.2 C6.7,14.2 6,14 5.4,13.5 C4.8,13.1 4.4,12.5 4.2,11.8 L12.3,11.8 L12.3,10.9 L12.2,10.9 Z" id="Shape"></path>
                <path d="M165.8,1.8 C166.3,2.3 166.5,2.8 166.5,3.5 C166.5,4.2 166.3,4.7 165.8,5.2 C165.3,5.7 164.8,5.9 164.1,5.9 C163.4,5.9 162.9,5.7 162.4,5.2 C161.9,4.7 161.7,4.2 161.7,3.5 C161.7,2.8 161.9,2.3 162.4,1.8 C162.9,1.3 163.4,1.1 164.1,1.1 C164.8,1.1 165.4,1.3 165.8,1.8 L165.8,1.8 Z M162.7,1 C162.3,1.3 161.9,1.6 161.7,2 C161.4,2.4 161.3,2.9 161.3,3.4 C161.3,3.9 161.4,4.4 161.7,4.8 C162,5.2 162.3,5.6 162.7,5.8 C163.1,6 163.6,6.2 164.1,6.2 C164.6,6.2 165.1,6.1 165.5,5.8 C165.9,5.5 166.3,5.2 166.5,4.8 C166.8,4.4 166.9,3.9 166.9,3.4 C166.9,2.9 166.8,2.4 166.5,2 C166.2,1.6 165.9,1.2 165.5,1 C165.1,0.7 164.6,0.6 164.1,0.6 C163.6,0.6 163.2,0.8 162.7,1 L162.7,1 Z M164.1,2.3 C164.4,2.3 164.6,2.3 164.7,2.4 C164.8,2.5 164.9,2.6 164.9,2.8 C164.9,3 164.8,3.1 164.7,3.2 C164.6,3.3 164.4,3.3 164.1,3.3 L163.5,3.3 L163.5,2.4 L164.1,2.4 L164.1,2.3 Z M163.5,3.7 L163.8,3.7 C164,3.7 164.1,3.8 164.3,3.9 C164.4,4 164.6,4.2 164.8,4.6 L165,5 L165.6,5 L165.2,4.4 C165,4.2 164.9,4 164.8,3.9 C164.7,3.8 164.6,3.7 164.5,3.7 C164.8,3.7 165,3.6 165.1,3.4 C165.3,3.2 165.3,3 165.3,2.8 C165.3,2.6 165.3,2.5 165.2,2.4 C165.1,2.3 165,2.2 164.8,2.1 C164.6,2 164.4,2 164,2 L163,2 L163,5 L163.5,5 L163.5,3.7 Z" id="Shape"></path>
            </g>
        </g>
    </g>
</svg>