<?xml version="1.0" encoding="UTF-8" standalone="no"?><!DOCTYPE svg PUBLIC "-//W3C//DTD SVG 1.1//EN" "http://www.w3.org/Graphics/SVG/1.1/DTD/svg11.dtd"><svg width="60px" height="60px" version="1.1" xmlns="http://www.w3.org/2000/svg" xmlns:xlink="http://www.w3.org/1999/xlink" xml:space="preserve" xmlns:serif="http://www.serif.com/" style="fill-rule:evenodd;clip-rule:evenodd;"><g id="template-icon-freccia-bianca" serif:id="template/icon/freccia-bianca"><g id="template-icon-freccia-media" serif:id="template/icon/freccia-media" transform="matrix(-1,0,-0,1,38.75,15)"><path d="M13.242,20.258c-0.234,-0.235 -0.234,-0.469 0,-0.703l3.926,-4.336l-16.699,0c-0.313,0 -0.469,-0.156 -0.469,-0.469c0,-0.313 0.156,-0.469 0.469,-0.469l16.699,0l-3.926,-4.336c-0.234,-0.234 -0.234,-0.468 0,-0.703c0.235,-0.234 0.469,-0.234 0.703,0c3.086,3.399 4.649,5.117 4.688,5.156c0.078,0.079 0.117,0.196 0.117,0.352c0,0.156 -0.039,0.273 -0.117,0.352l-4.688,5.156c-0.078,0.078 -0.195,0.117 -0.351,0.117c-0.157,0 -0.274,-0.039 -0.352,-0.117Z" style="fill:#fff;fill-rule:nonzero;"/></g><g id="Oval" transform="matrix(-1,0,-0,1,60,0)"><circle cx="30" cy="30" r="29.5" style="fill:none;stroke:#fff;stroke-width:1px;"/></g></g></svg>