<?xml version="1.0" encoding="UTF-8"?>
<svg width="18px" height="18px" viewBox="0 0 18 18" version="1.1" xmlns="http://www.w3.org/2000/svg" xmlns:xlink="http://www.w3.org/1999/xlink">
    <!-- Generator: Sketch 53 (72520) - https://sketchapp.com -->
    <title>template/loghi/instagram-bianco</title>
    <desc>Created with Sketch.</desc>
    <g id="Symbols" stroke="none" stroke-width="1" fill="none" fill-rule="evenodd">
        <g id="header" transform="translate(-1303.000000, -9.000000)" fill="#FFFFFF" fill-rule="nonzero">
            <path d="M1314.42859,17.8571343 C1314.42859,16.2834718 1313.1451,14.9999881 1311.57144,14.9999881 C1309.99778,14.9999881 1308.71429,16.2834718 1308.71429,17.8571343 C1308.71429,19.4307969 1309.99778,20.7142806 1311.57144,20.7142806 C1313.1451,20.7142806 1314.42859,19.4307969 1314.42859,17.8571343 Z M1315.96877,17.8571343 C1315.96877,20.290173 1314.00448,22.254461 1311.57144,22.254461 C1309.1384,22.254461 1307.17411,20.290173 1307.17411,17.8571343 C1307.17411,15.4240957 1309.1384,13.4598077 1311.57144,13.4598077 C1314.00448,13.4598077 1315.96877,15.4240957 1315.96877,17.8571343 Z M1317.17412,13.281236 C1317.17412,13.8504331 1316.71653,14.308023 1316.14734,14.308023 C1315.57814,14.308023 1315.12055,13.8504331 1315.12055,13.281236 C1315.12055,12.7120389 1315.57814,12.2544491 1316.14734,12.2544491 C1316.71653,12.2544491 1317.17412,12.7120389 1317.17412,13.281236 Z M1311.57144,10.825876 C1310.32144,10.825876 1307.64286,10.7254294 1306.51563,11.1718585 C1306.125,11.3281087 1305.83482,11.5178411 1305.53349,11.8191807 C1305.23215,12.1205204 1305.04241,12.4106993 1304.88616,12.8013247 C1304.43973,13.9285582 1304.54018,16.6071329 1304.54018,17.8571343 C1304.54018,19.1071358 1304.43973,21.7857105 1304.88616,22.9129439 C1305.04241,23.3035694 1305.23215,23.5937483 1305.53349,23.895088 C1305.83482,24.1964276 1306.125,24.38616 1306.51563,24.5424102 C1307.64286,24.9888393 1310.32144,24.8883927 1311.57144,24.8883927 C1312.82144,24.8883927 1315.50001,24.9888393 1316.62725,24.5424102 C1317.01787,24.38616 1317.30805,24.1964276 1317.60939,23.895088 C1317.91073,23.5937483 1318.10046,23.3035694 1318.25671,22.9129439 C1318.70314,21.7857105 1318.6027,19.1071358 1318.6027,17.8571343 C1318.6027,16.6071329 1318.70314,13.9285582 1318.25671,12.8013247 C1318.10046,12.4106993 1317.91073,12.1205204 1317.60939,11.8191807 C1317.30805,11.5178411 1317.01787,11.3281087 1316.62725,11.1718585 C1315.50001,10.7254294 1312.82144,10.825876 1311.57144,10.825876 Z M1320.14288,17.8571343 C1320.14288,19.0401715 1320.15404,20.2120479 1320.08707,21.395085 C1320.02011,22.7678545 1319.70761,23.9843738 1318.70314,24.9888393 C1317.69868,25.9933048 1316.48216,26.3058051 1315.10939,26.3727695 C1313.92635,26.4397339 1312.75448,26.4285731 1311.57144,26.4285731 C1310.3884,26.4285731 1309.21653,26.4397339 1308.03349,26.3727695 C1306.66072,26.3058051 1305.4442,25.9933048 1304.43973,24.9888393 C1303.43527,23.9843738 1303.12277,22.7678545 1303.0558,21.395085 C1302.98884,20.2120479 1303,19.0401715 1303,17.8571343 C1303,16.6740972 1302.98884,15.5022208 1303.0558,14.3191837 C1303.12277,12.9464142 1303.43527,11.7298949 1304.43973,10.7254294 C1305.4442,9.72096393 1306.66072,9.40846356 1308.03349,9.34149919 C1309.21653,9.27453483 1310.3884,9.28569555 1311.57144,9.28569555 C1312.75448,9.28569555 1313.92635,9.27453483 1315.10939,9.34149919 C1316.48216,9.40846356 1317.69868,9.72096393 1318.70314,10.7254294 C1319.70761,11.7298949 1320.02011,12.9464142 1320.08707,14.3191837 C1320.15404,15.5022208 1320.14288,16.6740972 1320.14288,17.8571343 Z" id="template/loghi/instagram-bianco"></path>
        </g>
    </g>
</svg>